<svg width="284" height="93" viewBox="0 0 284 93" fill="none" xmlns="http://www.w3.org/2000/svg">
<path d="M13.8679 26.346V59.61C13.8679 70.698 22.9399 79.644 33.7759 79.644C44.4859 79.644 53.1799 71.076 53.5579 60.618V26.346H53.8099H67.0399V59.61V92.874H53.5579V86.322C48.0139 90.48 41.3359 92.874 33.7759 92.874C15.6319 92.874 0.511908 78.006 0.511908 59.61V26.346H13.8679ZM81.1857 78.762V37.434H74.2557V26.346H81.1857V7.19399H94.6677V26.346H110.796V37.434H94.6677V77.25H110.796V92.874H93.2817C86.6037 92.874 81.1857 86.574 81.1857 78.762ZM156.91 93C135.616 93 117.976 75.486 117.976 53.814V0.263992H131.206V53.814C131.206 68.178 142.672 79.644 156.91 79.644C171.148 79.644 182.74 68.178 182.74 53.814V0.263992H196.096V53.814C196.096 75.486 178.582 93 156.91 93ZM203.412 93L203.286 92.874L235.29 46.506L203.286 0.389998L203.412 0.263992H219.666L243.354 34.914L267.168 0.263992H283.422H283.548L251.544 46.506L283.548 92.874L283.422 93H267.168L243.354 58.476L219.666 93H203.412Z" fill="#FFFAFA"/>
</svg>
